<svg
  xmlns="http://www.w3.org/2000/svg"
  width="192"
  height="192"
  fill="#3b82f6"
  viewBox="0 0 256 256"
>
  <rect width="256" height="256" fill="none"></rect>
  <path
    d="M88,92a68,68,0,1,1,68,68H76a44,44,0,0,1,0-88,42.5,42.5,0,0,1,14.3,2.4"
    opacity="0.2"
  ></path>
  <line
    x1="120"
    y1="192"
    x2="72"
    y2="192"
    fill="none"
    stroke="#3b82f6"
    stroke-linecap="round"
    stroke-linejoin="round"
    stroke-width="10"
  ></line>
  <line
    x1="184"
    y1="192"
    x2="160"
    y2="192"
    fill="none"
    stroke="#3b82f6"
    stroke-linecap="round"
    stroke-linejoin="round"
    stroke-width="10"
  ></line>
  <line
    x1="160"
    y1="224"
    x2="104"
    y2="224"
    fill="none"
    stroke="#3b82f6"
    stroke-linecap="round"
    stroke-linejoin="round"
    stroke-width="10"
  ></line>
  <path
    d="M88,92a68,68,0,1,1,68,68H76a44,44,0,0,1,0-88,42.5,42.5,0,0,1,14.3,2.4"
    fill="none"
    stroke="#3b82f6"
    stroke-linecap="round"
    stroke-linejoin="round"
    stroke-width="10"
  ></path>
</svg>
